<svg xmlns="http://www.w3.org/2000/svg" viewBox="0 0 760 560" role="img" aria-label="Healthcare IT support">
  <defs>
    <linearGradient id="g" x1="80" y1="80" x2="660" y2="500" gradientUnits="userSpaceOnUse">
      <stop stop-color="#0f6bff"/>
      <stop offset="1" stop-color="#00a7a7"/>
    </linearGradient>
    <filter id="s" x="-20%" y="-20%" width="140%" height="140%">
      <feDropShadow dx="0" dy="18" stdDeviation="20" flood-color="#0b2a55" flood-opacity=".16"/>
    </filter>
  </defs>
  <rect width="760" height="560" rx="34" fill="#f4f8ff"/>
  <circle cx="145" cy="115" r="76" fill="#dff7f6"/>
  <circle cx="630" cy="445" r="86" fill="#e4efff"/>
  <rect x="120" y="96" width="520" height="340" rx="34" fill="#fff" filter="url(#s)"/>
  <rect x="165" y="147" width="180" height="238" rx="26" fill="#10213a"/>
  <rect x="186" y="178" width="138" height="154" rx="18" fill="#eef6ff"/>
  <circle cx="255" cy="357" r="12" fill="#dff7f6"/>
  <rect x="390" y="150" width="180" height="44" rx="16" fill="#eef6ff"/>
  <rect x="390" y="222" width="180" height="44" rx="16" fill="#eef6ff"/>
  <rect x="390" y="294" width="180" height="44" rx="16" fill="#eef6ff"/>
  <path d="M455 173h50M455 245h50M455 317h50" stroke="#0f6bff" stroke-width="12" stroke-linecap="round"/>
  <path d="M242 236h26M255 223v26" stroke="url(#g)" stroke-width="14" stroke-linecap="round"/>
  <g transform="translate(512 72)">
    <rect width="102" height="102" rx="28" fill="url(#g)"/>
    <path d="M51 26v50M26 51h50" stroke="#fff" stroke-width="12" stroke-linecap="round"/>
  </g>
</svg>