<svg xmlns="http://www.w3.org/2000/svg" viewBox="0 0 760 600" role="img" aria-label="Cloud operations dashboard">
  <defs>
    <linearGradient id="bg" x1="0" y1="0" x2="760" y2="600">
      <stop stop-color="#eef6ff"/>
      <stop offset="1" stop-color="#ffffff"/>
    </linearGradient>
    <linearGradient id="blue" x1="110" y1="100" x2="640" y2="480">
      <stop stop-color="#0f6bff"/>
      <stop offset="1" stop-color="#00a7a7"/>
    </linearGradient>
    <filter id="shadow" x="-20%" y="-20%" width="140%" height="140%">
      <feDropShadow dx="0" dy="18" stdDeviation="18" flood-color="#0b2a55" flood-opacity=".18"/>
    </filter>
  </defs>
  <rect width="760" height="600" rx="36" fill="url(#bg)"/>
  <circle cx="632" cy="84" r="56" fill="#dff7f6"/>
  <circle cx="102" cy="488" r="74" fill="#e4efff"/>
  <rect x="86" y="86" width="588" height="398" rx="28" fill="#fff" filter="url(#shadow)"/>
  <rect x="86" y="86" width="588" height="70" rx="28" fill="#10213a"/>
  <circle cx="129" cy="122" r="10" fill="#ff6b6b"/>
  <circle cx="160" cy="122" r="10" fill="#ffd166"/>
  <circle cx="191" cy="122" r="10" fill="#2dd4bf"/>
  <rect x="122" y="194" width="210" height="246" rx="22" fill="#f4f8ff"/>
  <rect x="366" y="194" width="260" height="84" rx="20" fill="#f4f8ff"/>
  <rect x="366" y="300" width="260" height="140" rx="20" fill="#f4f8ff"/>
  <path d="M155 370c48-116 95-98 127-176 41 53 19 115 15 176h-142z" fill="url(#blue)" opacity=".92"/>
  <path d="M401 246h180" stroke="#0f6bff" stroke-width="16" stroke-linecap="round"/>
  <path d="M401 351h160M401 391h110" stroke="#00a7a7" stroke-width="15" stroke-linecap="round"/>
  <g transform="translate(475 115)">
    <rect x="0" y="0" width="92" height="92" rx="24" fill="url(#blue)"/>
    <path d="M28 56h36c7 0 13-5 13-12s-6-12-13-12c-2 0-4 .4-5.7 1.2C55.5 28 49.8 24 43 24c-10.5 0-19 8.2-19 18.3S32.5 60.6 43 60.6h5" fill="none" stroke="#fff" stroke-width="6" stroke-linecap="round"/>
  </g>
  <g transform="translate(186 455)">
    <rect width="130" height="78" rx="20" fill="#10213a"/>
    <rect x="20" y="18" width="90" height="42" rx="8" fill="#dff7f6"/>
  </g>
  <g transform="translate(520 420)">
    <circle cx="42" cy="42" r="42" fill="#0f6bff"/>
    <path d="M42 20v44M20 42h44" stroke="#fff" stroke-width="10" stroke-linecap="round"/>
  </g>
</svg>